<?xml version="1.0" encoding="utf-8"?>
<svg xmlns="http://www.w3.org/2000/svg" viewBox="0 0 235.3 100.2">
  <path d="M214.5 1.5a2.1 2.1 0 0 0-1.8-1.4h-.6c-1.4.4-2.1 1.1-1.8 2.7.6 2.5 5.2 1.7 4.2-1.3zm-44.9 1.3A2.1 2.1 0 0 0 167 .2a2.09 2.09 0 0 0-1.7 2.7c.5 1.8 3.8 2.1 4.3-.1zm40 5.2a2 2 0 0 0 1-1.2 2.11 2.11 0 0 0-2.3-2.8 2 2 0 0 0-1.9 1.2 2.31 2.31 0 0 0 3.2 2.8zm9-1.9a2.06 2.06 0 0 0-2.4-2 2 2 0 0 0-2 2.1c0 2.6 4.4 2.8 4.4-.1zm-49 1a2.4 2.4 0 0 0-2.5-1.4 2.12 2.12 0 0 0-1.7 2.9c1 2.4 5 1.2 4.2-1.5zM55.7 63.2h-1.3v-28C39 33.5 28.1 38.3 21.6 49.7c-.3.5-.5 1-.8 1.5v.1c-.5.9-.9 1.8-1.3 2.7-.1.2-.1.4-.2.5a26.54 26.54 0 0 0-1.1 3h0c-.1.4-.3.8-.4 1.3 0 .1 0 .1-.1.2-.1.4-.3.8-.4 1.3 0 .1 0 .1-.1.2a6.47 6.47 0 0 1-.4 1.3l19.1 6c-1.8 5.4-5.3 8.2-10.7 8.5s-9.7-1-13.1-4.1-5.2-8.9-5.2-17.6V43L0 46.4v9c-.1 11.3 2.4 18.9 7.4 22.9s10.2 5.8 15.7 5.7a24.18 24.18 0 0 0 14.1-4.1c4-2.6 6.5-8.3 7.6-17l-7-2.4-11.3-4.3c.1-.2.3-.5.4-.7v-.1a27.35 27.35 0 0 1 3-4.3 28.34 28.34 0 0 1 2.4-2.5l.4-.4c.1-.1.3-.2.4-.4a19.32 19.32 0 0 1 14.6-4.3v26.4h17.9a21.75 21.75 0 0 1 2-6.9l-11.9.2zm77.7-8.3l-.6-3.1c0-.2-.1-.4-.1-.6l-.3-1c-.1-.3-.1-.3-.1-.5l-.6-1.8c-2.2-7.1-5.4-12.1-9.5-15.1a21.84 21.84 0 0 0-8.3-3.8 42 42 0 0 1-4 7.6l1.5-.2c2-.2 4.4 1.1 7.1 3.8l.8.8c.1.2.3.3.4.5h0c1.9 2.2 3.4 5.5 4.5 9.7.2.6.3 1.2.5 1.9a17.08 17.08 0 0 1 .8 2.9 40 40 0 0 1 .7 7H89.9a32.47 32.47 0 0 0-3.2 7.4H130l4.1-.2v-6.9a49.07 49.07 0 0 0-.4-5.5 23.57 23.57 0 0 0-.3-2.9zm-64.9-8.5l.1 13.8c1.3-2.3 2.7-4.4 3.9-6.1.1-.1.1-.2.2-.3l.1-.1c0-.1.1-.1.1-.2s.1-.1.1-.2a.1.1 0 0 1 .1-.1l1.2-2a3.59 3.59 0 0 1 .7-1h0c0-.1.1-.1.1-.2v-.1c0-.1.1-.1.1-.2a.1.1 0 0 1 .1-.1l.1-.1c.1-.1.1-.2.2-.2v-6.6h-7.2zm100.9 4.8l-.1 8.8v3.2h-21.6V15h-7.3v55h36V42.6h-6.9l-.1 8.6zm44 0V63h-13.6V42.6h-6.9v23a12.55 12.55 0 0 1-3.4 7.8 10.1 10.1 0 0 1-7.8 3.6l-3.6 7.2q9.6-.15 15-4.2a17.1 17.1 0 0 0 6.7-9.7v-.2h20.7V28.8h-6.9zm14.2-.8v19.9h7.2V28.6h-7.2v21.8zm-5.4-42.2c0 3.7.1 7.8-.1 11.3a19 19 0 0 1-3.4-.1v-9.2c-2.4.3-3 2.4-5.1 3 1 1.3.6 4.2.6 6.2a19 19 0 0 1-3.4-.1v-9.2c-2.3.4-3.1 2.4-5.1 3.1 1 1.2.5 4.2.6 6.2a17.93 17.93 0 0 1-3.3-.1v-9.2c-2.4.3-3 2.4-5.1 3 .9 1.1.5 4.2.5 6.2-1.1-.1-2.3 0-3.3-.1v-9.1c-2.3.3-2.9 2.4-5.1 3 .9 1.4.6 4.5.6 7.1a45.51 45.51 0 0 1-.1 5.3 6.45 6.45 0 0 1-4.4 5.3c4.8 1.8 9.5-1.3 8.9-6.9h31.6V.1c-2.4.1-3.1 2.3-5.1 3 1 1.1.7 3.2.7 5.1zm8-8l-.1 23.8h4.4V9.4c0-2.3-.3-4.9.8-6.2v-.1c-2.2-.4-2.6-2.6-5.1-2.9zm-68.9 31.3h1.1a12 12 0 0 0 5.9-2.3 8.89 8.89 0 0 0 3.1-5.1 53 53 0 0 0 0-6.9v-6.8a23.89 23.89 0 0 1-4.5 1.4c-3.2.7-6.6.9-7.6 3.7-.8 2.1-.1 5.5-.4 8.4l8.1.1c-1.1 2.3-2.9 4.2-6.2 4.2a6.44 6.44 0 0 1-6.2-3.9c-1.1-2.3-.7-6.1.2-8.4 2-4.8 6.1-7.4 9.2-10.8-3.7 3.5-9.1 6.7-11 12.5-1.1 3.3-.9 7.2.7 9.7a9.72 9.72 0 0 0 7.6 4.2zm5.5-12h-3.3c-.6-2.6 1-3.5 3.3-3.4zm16 4.6a6.22 6.22 0 0 1-4.4 6.8c4.6 1.7 8.5-1 8.9-5.1.4-4.7-.2-10.9.1-15.4a.1.1 0 0 0-.1-.1 21.12 21.12 0 0 1-6.1 1.6 8.34 8.34 0 0 0-5.2 2.3c-1.8 2-1 6-1.2 9.9 2.7 0 5.5-.2 8 0zm0-8a20.48 20.48 0 0 1-.1 3.5h-3.5c-.5-2.8 1-3.8 3.6-3.5z" style="fill: rgb(58, 95, 137);"/>
  <circle cx="105.8" cy="6.2" r="6.2"/>
  <circle cx="105.8" cy="6.2" r="6.2" style="fill: rgb(58, 95, 137);"/>
  <circle cx="162.3" cy="93.3" r="6.8" style="fill: rgb(58, 95, 137);"/>
  <path d="M167.8,86.6a6.8,6.8,0,1,0-11,0,10.25,10.25,0,0,1,11,0Z" style="fill: rgb(58, 95, 137);"/>
  <circle cx="14" cy="93.4" r="6.8" style="fill: rgb(58, 95, 137);"/>
  <path d="M20.7 98.9a6.8 6.8 0 1 0 0-11 9.89 9.89 0 0 1 1.6 5.5 9.16 9.16 0 0 1-1.6 5.5zm76.4-78.5a9.15 9.15 0 0 1-.4 2.6 8 8 0 0 0 .4-2.6z" style="fill: rgb(58, 95, 137);"/>
  <path d="M96.6 23.2l-.3.8a2.61 2.61 0 0 0 .3-.8z"/>
  <path d="M89.6 13a19 19 0 0 1 5.3 2.9h0a5.5 5.5 0 0 1 2.2 4.5 8 8 0 0 1-.4 2.6c0 .1-.1.2-.1.3a6.89 6.89 0 0 0-.3.8v.1c-1.6 4.3-6.2 12.3-18.8 27.3 0 0-22.2 25.8 5.6 31.6 0 0-18.8-5.1 6.9-35.3.1-.1 31-30.9-.4-34.8z" style="fill: rgb(58, 95, 137);"/>
  <path d="M96.7 23c0 .1-.1.2-.1.3a.44.44 0 0 1 .1-.3zm-.3 1v.1c-.1 0-.1-.1 0-.1zm1.7-9.7s18.4 2.7 2.9 23.1c0 0-19 22.9-20.6 30.8 0 0-5.3 13.1 9.2 16 0 0-15.4-3.6.7-26.7l13.3-16.7c.1.1 21.5-22.3-5.5-26.5z" style="fill: rgb(58, 95, 137);"/>
</svg>