<svg xmlns="http://www.w3.org/2000/svg" viewBox="8.9 18.7 32.2 12.2"><path d="M25.6 28c.1 1.2-.3 2.1-1.4 2.7a2.56 2.56 0 0 1-2.1 0l.8-.5a2.37 2.37 0 0 0 .9-1.5v-3.8c0-.4 0-.7-.3-1 .5-.1.8-.5 1.2-.8.2-.2.5-.3.8-.4v3.6h1.3v-1.6c0-.3 0-.6-.2-.8.2-.1.4-.2.5-.3.3-.2.5-.4.7-.6s.4-.3.7-.3v3.6h1.3v-1.9c0-.2-.1-.4-.2-.6.5-.2.8-.5 1.2-.9.2-.2.5-.3.8-.3v3.6h1.3v-1.8c0-.2-.1-.4-.2-.5.5-.2.8-.5 1.2-.9.2-.2.4-.3.7-.3v3.6h1.3V21c0-.4 0-.7-.3-1.1.5-.2.8-.5 1.2-.8.2-.2.5-.3.8-.3V28h-12zm-12.1-7.4L12.1 22c-.9.9-1.8 1.8-2.2 3-.2.5-.3 1-.3 1.5 0 .6 0 1.2.4 1.7.5.7 1.1 1.1 1.9 1.2s1.6-.2 2.2-.7c.3-.2.4-.5.6-.9h-3.1v-2.3c0-.4.1-.7.2-1 .2-.6.7-.9 1.3-1.1l1.6-.3a9.83 9.83 0 0 0 1.6-.5c.1 0 .1-.1.2-.1v5.3a1.69 1.69 0 0 1-.3 1c-.6 1.1-1.5 1.7-2.7 1.9-1.3.2-2.5-.2-3.4-1.1-.5-.5-.8-1.2-.9-2a5.68 5.68 0 0 1 1.1-3.8c.5-.8 1.2-1.4 1.9-2 .2-.3.7-.7 1.3-1.2-.1 0-.1 0 0 0zm-.3 5.6h1.3v-1.3c-.4 0-.8 0-1.1.3-.1.1-.2.2-.2.3v.7zm9.3-3.6v5.8c0 1.3-.8 2.3-2.1 2.4a2.2 2.2 0 0 1-1.4-.2c.7-.2 1.2-.7 1.5-1.3.2-.4.3-.9.1-1.3h-3.1v-2.7c0-.5.2-.9.6-1.2.4-.4 1-.6 1.6-.8.7-.1 1.4-.3 2.1-.5.4 0 .5-.1.7-.2zm-1.7 2.3c-.3 0-.5 0-.8.1-.3 0-.5.2-.6.4-.1.3-.1.5-.1.8h1.4c.1-.4.1-.9.1-1.3zM40.9 28h-1.7v-9.2c.3 0 .6.2.9.4.2.2.4.3.6.5.2.1.4.2.5.3-.1.2-.2.4-.2.6s-.1.3-.1.5v6.8c0-.1 0-.1 0 .1zm-7.7-8.5c0 .5-.4.8-.9.8s-.9-.4-.9-.8.3-.8.9-.8c.5 0 .9.4.9.8zm.6 2.3c-.4 0-.9-.3-.9-.8s.4-.8.9-.8.9.4.8.8c.1.5-.4.9-.8.8zm-19-1.5c-.4 0-.9-.4-.8-.9 0-.4.4-.8.9-.8.4 0 .8.3.8.9-.1.5-.4.8-.9.8zm16 1.5c-.5 0-.9-.4-.9-.8 0-.5.4-.8.8-.8.5 0 .9.3.9.8s-.3.8-.8.8zm-16 .7c-.4 0-.9-.4-.9-.8s.4-.8.9-.8.8.4.8.8c.1.4-.3.8-.8.8z"/></svg>