<svg xmlns="http://www.w3.org/2000/svg" xmlns:xlink="http://www.w3.org/1999/xlink" viewBox="0 0 226.67 99.94"><defs><clipPath id="A" transform="translate(0 .52)"><path d="M71,12.78s.09,2.1-1.64,1.35c0,0-1.29-1.66.79-4.77,0,0,1-.23.35.75s-1.61,3-.2,3c0,0,.49-.94.7-.37"/></clipPath><clipPath id="B" transform="translate(0 .52)"><path d="M71.78,4.42S72.22.28,73.51.86s1.14,1.63.56,1.75c0,0-.85-.89-1.15-.06s-.82,3.94-1.4,4.08-.8-.11-.47-.34-.15-1.9-.59-2a2.07,2.07,0,0,0-.5,0A1.1,1.1,0,0,1,69.11,4c-.38-.38.09-2.73,1-1.81s1.61,2.47,1.7,2.21"/></clipPath><clipPath id="C" transform="translate(0 .52)"><path d="M69.82,18.64s-.21,2.1.79,2,.11-1.29,0-1.58.27-1.12.59-.4.94,2.73-1.11,2.76a3.7,3.7,0,0,1-.47-.49c-.23-.29-.44.69-.94.75s-1.52.2-1.7-1,.18-3.7.79-2.81-.88,2.41.27,2.87,1.14,0,1.17-.54-.09-2.76.38-2.13l.18.6"/></clipPath><clipPath id="D" transform="translate(0 .52)"><path d="M101.29,1.55S83,8.58,82.71,9s-1,1.35.35.69,17.06-6.44,17.5-6.76,1.61-1.61.73-1.37"/></clipPath><clipPath id="E" transform="translate(0 .52)"><path d="M85.55 11.8l14.51-6c.88-.31 1.26-.11.64.55s-14.88 5.72-15.18 6.29.59 1.13.41 1.53-.58.83-.85.49-1-.72-.79-1.24.77-1.46 1.26-1.64"/></clipPath><clipPath id="F" transform="translate(0 .52)"><path d="M85.64,19.82s-2,3.19-.67,3c0,0,.58-.26.41.31s-1,1.18-1.47.23a5.06,5.06,0,0,1,1.17-3.73c1.53-2.1.56,0,.56.17"/></clipPath><clipPath id="G" transform="translate(0 .52)"><path d="M85.64 3.85s.44-4.14 1.73-3.57 1.14 1.64.56 1.75c0 0-.85-.89-1.15 0s-.78 3.88-1.4 4.03-.79-.12-.47-.35-.15-1.89-.59-2a1.67 1.67 0 0 0-.5 0 1.1 1.1 0 0 1-.82-.27c-.38-.37.09-2.73 1-1.81s1.61 2.47 1.7 2.22"/></clipPath><clipPath id="H" transform="translate(0 .52)"><path d="M93.11,14.42s.44-4.14,1.73-3.56,1.15,1.63.56,1.75c0,0-.85-.89-1.14-.06s-.82,3.94-1.41,4.08-.79-.11-.47-.34-.14-1.9-.58-2a2.15,2.15,0,0,0-.51,0,1.06,1.06,0,0,1-.84-.22c-.38-.38.08-2.73,1-1.81s1.61,2.47,1.69,2.21"/></clipPath><clipPath id="I" transform="translate(0 .52)"><path d="M97.21 31.17s-.23.75.15.95.44.4.06 1.09-1.32 1.87-.06 1.73a5.15 5.15 0 0 0 2.4-1.33c.3-.14.77 0 .3.58s-2.14 2.35-3.63 1.81-.83-.95-.59-1.81 1.17-1 .35-1.24-1.52-.48-.91-1.23 1.82-1.58 1.93-.52"/></clipPath><clipPath id="J" transform="translate(0 .52)"><path d="M107.41,30.88s-3,4.29-.9,5.32a1.58,1.58,0,0,0,1.67-2s-.06-.35-.56.17-1.06,1.06-1.17.4a3.73,3.73,0,0,1,.79-2.24c.38-.51,1.23-2.18.17-1.64"/></clipPath><clipPath id="K" transform="translate(0 .52)"><path d="M64.66 32.51l-1.53 1.94-1.95-1.48 1.54-1.94 1.94 1.48"/></clipPath><clipPath id="L" transform="translate(0 .52)"><path d="M67.89 32.12l-1.53 1.94-1.95-1.48 1.54-1.94 1.94 1.48"/></clipPath><clipPath id="M" transform="translate(0 .52)"><path d="M89.67 32.72l-1.53 1.94-1.95-1.48 1.54-1.94 1.94 1.48"/></clipPath><clipPath id="N" transform="translate(0 .52)"><path d="M108.61 8.05c-.13-1.73.33-1.12.46-.64s.29.87.79.49-1.06-4.9-1.21-5.79S108 .42 108 .65a19.86 19.86 0 0 1-1.2 2.09 4.5 4.5 0 0 1 .11.59 3205.62 3205.62 0 0 0 .78 16.45l.2 5.87 1.53 1c.11-2.53-.71-17-.83-18.62"/></clipPath><path id="O" d="M71 13.3s.09 2.1-1.64 1.35c0 0-1.29-1.66.79-4.77 0 0 1-.23.35.75s-1.61 3-.2 3c0 0 .49-.94.7-.37"/><path id="P" d="M69.82 19.16s-.21 2.1.79 2 .11-1.29 0-1.58.27-1.12.59-.4.94 2.73-1.11 2.76a3.7 3.7 0 0 1-.47-.49c-.23-.29-.44.69-.94.75s-1.52.2-1.7-1 .18-3.7.79-2.81-.88 2.41.27 2.87 1.14 0 1.17-.54-.09-2.76.38-2.13"/><path id="Q" d="M101.29 2.07S83 9.1 82.71 9.52s-1 1.35.35.69 17.06-6.44 17.5-6.76 1.61-1.61.73-1.37"/><path id="R" d="M85.55 12.32l14.51-6c.88-.31 1.26-.12.64.54s-14.88 5.72-15.18 6.29.59 1.13.41 1.53-.58.83-.85.49-1-.72-.79-1.24.77-1.46 1.26-1.64"/><path id="S" d="M85.64 20.34s-2 3.19-.67 3c0 0 .58-.26.41.31s-1 1.18-1.47.23a5.06 5.06 0 0 1 1.17-3.73c1.53-2.1.56 0 .56.17"/><path id="T" d="M85.64 4.37S86.08.23 87.37.8s1.14 1.64.56 1.75c0 0-.85-.89-1.15 0s-.78 3.88-1.4 4.03-.79-.12-.47-.35-.15-1.89-.59-2-1 .12-1.35-.26.09-2.73 1-1.81 1.61 2.47 1.7 2.22"/><path id="U" d="M93.11 14.94s.44-4.14 1.73-3.56 1.15 1.63.56 1.75c0 0-.85-.89-1.14-.06s-.82 3.94-1.41 4.08-.79-.11-.47-.34-.14-1.9-.58-2-1 .12-1.35-.25.08-2.73 1-1.81 1.61 2.47 1.69 2.21"/><path id="V" d="M97.21 31.69s-.23.75.15.95.44.4.06 1.09-1.32 1.87-.06 1.73a5.15 5.15 0 0 0 2.4-1.33c.3-.14.77 0 .3.58s-2.14 2.35-3.63 1.81-.83-.95-.59-1.81 1.17-1 .35-1.24-1.52-.48-.91-1.23 1.82-1.58 1.93-.52"/><path id="W" d="M107.41 31.4s-3 4.29-.9 5.32a1.58 1.58 0 0 0 1.67-2c0 0-.06-.35-.56.17s-1.06 1.06-1.17.4a3.73 3.73 0 0 1 .79-2.24c.38-.51 1.23-2.18.17-1.64"/><path id="X" d="M108.61 8.57c-.13-1.73.33-1.12.46-.64s.29.87.79.49-1.06-4.9-1.21-5.79S108 .94 108 1.17a19.86 19.86 0 0 1-1.2 2.09 4.5 4.5 0 0 1 .11.59 3205.62 3205.62 0 0 0 .78 16.45l.2 5.87 1.53 1c.11-2.53-.71-17-.83-18.62"/></defs><path d="M163.25 14.14h1.68c2.75.61 4.27 2 4.88 3.87 2.71 8.17-9.84 10.32-11.44 3.37-.97-4.23 1.17-6.02 4.88-7.24zm-123.13.38c4.28-.78 8.23 2.28 7.06 7.07-1.47 6-10.27 5.07-11.61.17a5.58 5.58 0 0 1 4.55-7.24zm163 0v64.89h-86.3c1.7 15.2-11.17 23.72-24.22 18.84 5.42-2.25 11.25-6.5 11.94-14.46.38-4.29.17-9.4.17-14.47 0-7.14.76-15.51-1.68-19.34 5.8-1.49 7.42-7.16 13.79-8.08v24.9c2.83.31 6.14.14 9.09.33.08-5.41 1-14-1.35-17 5.58-1.76 7.29-7.39 13.79-8.24v25.08c2.7.39 6.12 0 9.09.16-.08-5.36 1.33-13.66-1.52-16.82 5.54-1.92 7.57-7.34 14-8.41v25.07c2.75.38 6.22 0 9.25.16 0-5.54 1.11-13.55-1.52-17 5.63-1.72 7.27-7.42 13.8-8.24v25.08c2.75.38 6.22 0 9.25.16.31-9.5.17-20.58.17-30.78 0-5.26.8-11.07-1.68-13.79 5.4-1.8 7.4-7.94 13.93-8.04zm23.55 7.87v.13c-3 3.54-2.19 10.59-2.19 17v39.89h-12.11l.17-64.93c6.72.63 7.9 6.79 14.13 7.91zM153 24.91c3.53-.26 7.81 2.36 6.22 7.57a6.24 6.24 0 0 1-2.86 3.2c-5 2.47-10.58-2.43-8.58-7.41.67-1.68 2.22-3.14 5.22-3.36zm21.35 0c3.7-.31 6.52 2.18 6.56 5.55.1 7.87-12 7.43-12.11.17-.04-3.64 2.2-5.44 5.55-5.72zM27.5 99.94h-3C15 99.17 7.75 94.29 3.78 88.16-.61 81.38-1.11 70.82 1.93 61.75 7.2 45.99 22 37.05 32 27.6c-8.38 9.45-19.6 16.59-25 29.61-2.67 6.43-3.6 16.64-.67 23a17.47 17.47 0 0 0 16.82 10.6C31.89 90.8 37 85.69 40 79.41c-7.35-.11-15.14.23-22.21-.16.63-8.07-1.2-17.23 1-23.05 2.88-7.68 12.05-8.27 20.82-10.09a92.15 92.15 0 0 0 12.28-3.87v18.67c0 6.29.72 12.82 0 18.84-.67 5.56-4.75 10.77-8.41 13.77a29.26 29.26 0 0 1-15.98 6.42zm2.86-32.81h9.08v-9.25c-6.44-.43-10.75 2.15-9.08 9.25zm9.92-37.51c3.13-.49 6.13 1.14 6.9 3.7 2.17 7.29-8.86 10.63-11.44 4.21a5.7 5.7 0 0 1 4.54-7.91zM95.46 41.9c.14 0 .16.07.17.17-.68 12.37 1 29.3-.17 42.05-1 11.17-11.54 18.63-24.23 14 7.29-2.78 12.64-8.31 12-18.51-6.9-.39-14.52 0-21.7-.17.47-10.61-1.85-21.47 3.14-26.92 3.39-3.72 8.42-5.32 14.13-6.23s11.59-2.03 16.66-4.39zM73.59 67.13H83c.39-2.8.06-6.33.17-9.42-6.97-.75-11.17 2.12-9.58 9.42z" fill-rule="evenodd"/><use xlink:href="#O"/><use xlink:href="#O"/><g clip-path="url(#A)"><path d="M68.06 9.65h3.08v5.75h-3.08z"/><path d="M68.06 9.65v.23h2.85v5.29h-2.62V9.65h-.23v.23-.23h-.23v5.98h3.53V9.42h-3.53v.23"/></g><path d="M70.76 13.31h0a2.29 2.29 0 0 1-.12.75.89.89 0 0 1-.23.35.63.63 0 0 1-.39.14 1.41 1.41 0 0 1-.58-.15l-.09.21.18-.14a2.3 2.3 0 0 1-.35-1.35 5.71 5.71 0 0 1 1.15-3.15l-.19-.13v.22h.3 0a.92.92 0 0 1-.18.39 5.37 5.37 0 0 0-1 2.42 1 1 0 0 0 .22.67 1 1 0 0 0 .71.31h.15l.07-.13v-.08l.19-.26.09-.09h0l-.06.06h.06v-.08l-.06.06.42-.16-.13-.23a.42.42 0 0 0-.26-.1.48.48 0 0 0-.33.14 2.34 2.34 0 0 0-.4.54l.21.1v-.22a.58.58 0 0 1-.4-.15.56.56 0 0 1-.11-.38 5.06 5.06 0 0 1 .89-2.17 1.19 1.19 0 0 0 .25-.64.42.42 0 0 0-.23-.4.65.65 0 0 0-.34-.08 1.36 1.36 0 0 0-.27 0h-.09v.07a6.11 6.11 0 0 0-1.22 3.41 2.73 2.73 0 0 0 .44 1.63v.05h.05a1.94 1.94 0 0 0 .76.18 1.08 1.08 0 0 0 .69-.25 1.59 1.59 0 0 0 .44-.81 3.14 3.14 0 0 0 .07-.63v-.06"/><use xlink:href="#O"/><path d="M71.78 4.94s.44-4.14 1.73-3.56 1.14 1.63.56 1.75c0 0-.85-.89-1.15-.06s-.82 3.94-1.4 4.08-.8-.11-.47-.34-.15-1.9-.59-2-1 .12-1.35-.25.09-2.73 1-1.81 1.61 2.47 1.7 2.21"/><path d="M71.78 4.94s.44-4.14 1.73-3.56 1.14 1.63.56 1.75c0 0-.85-.89-1.15-.06s-.82 3.94-1.4 4.08-.8-.11-.47-.34-.15-1.9-.59-2a2.07 2.07 0 0 0-.5 0 1.1 1.1 0 0 1-.85-.29c-.38-.38.09-2.73 1-1.81s1.61 2.47 1.7 2.21"/><g clip-path="url(#B)"><path d="M68.73.8v.23h5.84v6.04h-5.61V.8h-.23v.23V.8h-.22v6.73h6.51V.57h-6.51V.8"/></g><use xlink:href="#P"/><path d="M69.82 19.16s-.21 2.1.79 2 .11-1.29 0-1.58.27-1.12.59-.4.94 2.73-1.11 2.76a3.7 3.7 0 0 1-.47-.49c-.23-.29-.44.69-.94.75s-1.52.2-1.7-1 .18-3.7.79-2.81-.88 2.41.27 2.87 1.14 0 1.17-.54-.09-2.76.38-2.13l.18.6"/><g clip-path="url(#C)"><path d="M66.86 17.47h5.33v4.94h-5.33z"/><path d="M66.86 17.47v.23h5.1v4.48h-4.87v-4.71h-.23v.23-.23h-.23v5.17h5.79v-5.4h-5.79v.23"/></g><path d="M69.59 19.14v.45a3.53 3.53 0 0 0 .14 1.08 1.3 1.3 0 0 0 .28.5.75.75 0 0 0 .56.23h.08a.77.77 0 0 0 .51-.21.6.6 0 0 0 .17-.44 2.16 2.16 0 0 0-.22-.76L71 19.7l-.11-.18a.72.72 0 0 1 .07-.3l.06-.09v-.05.06.02-.07.07a.85.85 0 0 1 .1.15 3.77 3.77 0 0 1 .32 1.34 1.09 1.09 0 0 1-.24.76 1.28 1.28 0 0 1-1 .34v.23l.15-.17a4.88 4.88 0 0 1-.4-.43.34.34 0 0 0-.27-.14.44.44 0 0 0-.22.08 3.19 3.19 0 0 0-.35.47c-.11.16-.23.25-.3.25a3.28 3.28 0 0 1-.46 0 1.07 1.07 0 0 1-.62-.16.94.94 0 0 1-.37-.72 4.9 4.9 0 0 1 0-.7 6.71 6.71 0 0 1 .15-1.47 1.56 1.56 0 0 1 .16-.48l.06-.1v.05.05-.06l.07.13a.7.7 0 0 1 .11.41 2.9 2.9 0 0 1-.16.81 3.42 3.42 0 0 0-.17.88.91.91 0 0 0 .13.5 1 1 0 0 0 .45.35 2.15 2.15 0 0 0 .81.2.66.66 0 0 0 .37-.1.62.62 0 0 0 .26-.41 3.34 3.34 0 0 0 0-.43v-1.3a4.48 4.48 0 0 1 .06-.62v-.15l-.16-.2v.12h.1l-.1-.12-.07.1h.07v-.1l-.07.1.36-.27a.41.41 0 0 0-.32-.2l-.2.07-.15.24a5.17 5.17 0 0 0-.12 1.21v1a1.38 1.38 0 0 1 0 .43v.06h-.12a1.8 1.8 0 0 1-.64-.17.48.48 0 0 1-.24-.18.44.44 0 0 1-.06-.25 2.89 2.89 0 0 1 .16-.75 3.64 3.64 0 0 0 .18-.94 1.14 1.14 0 0 0-.2-.67.59.59 0 0 0-.44-.29.44.44 0 0 0-.28.11 1.8 1.8 0 0 0-.4 1 7 7 0 0 0-.13 1.39 6 6 0 0 0 0 .77 1.42 1.42 0 0 0 .57 1 1.52 1.52 0 0 0 .87.23 3.4 3.4 0 0 0 .51 0 .69.69 0 0 0 .41-.2 2.32 2.32 0 0 0 .36-.46l.1-.14-.07-.09v.11h.07l-.07-.11-.07.12h.07v-.12l-.07.12v-.06-.01c.148.234.312.405.49.56l.07.06h.08a1.75 1.75 0 0 0 1.32-.49 1.52 1.52 0 0 0 .37-1.07 4.18 4.18 0 0 0-.37-1.52 1.31 1.31 0 0 0-.18-.29.46.46 0 0 0-.3-.13.41.41 0 0 0-.29.13 1.13 1.13 0 0 0-.26.71v.12a1.25 1.25 0 0 0 .09.25 2.43 2.43 0 0 1 .31.86v.12s-.08.07-.22.08h0a.29.29 0 0 1-.23-.1 1 1 0 0 1-.23-.54 3 3 0 0 1-.06-.72 2.86 2.86 0 0 1 0-.41"/><use xlink:href="#P"/><use xlink:href="#Q"/><use xlink:href="#Q"/><g clip-path="url(#D)"><path d="M81.69 1.84h20.48v9.02H81.69z"/><path d="M81.69 1.84v.22h20.25v8.57H81.91V1.84h-.22v.22-.22h-.23v9.25h20.93V1.61H81.46v.23"/></g><path d="M101.21 1.85L92 5.42l-6.38 2.55-2.15.89-.63.29-.19.11-.15.12-.28.43a1.11 1.11 0 0 0-.22.51l.11.25.26.08a1.87 1.87 0 0 0 .76-.25c.32-.15 1.57-.64 3.24-1.28L99 4.34l1.16-.46.35-.15.2-.1a5.08 5.08 0 0 0 .69-.66 3.56 3.56 0 0 0 .3-.41.73.73 0 0 0 .15-.41l-.11-.26-.26-.08h-.23l.12.43h.12v-.03.05-.05.05l.05-.12-.11.07.06.05.05-.12-.11.07.09-.06h-.11v.06l.09-.06h-.11a.65.65 0 0 1-.1.2 4.74 4.74 0 0 1-.85.91h0 0l-.27.12-9 3.43-5.32 2L83 9.99a2.08 2.08 0 0 1-.57.21h0v.11l.08-.07h-.07v.11l.08-.07-.09.08h.12v-.08l-.09.08h.12a1.29 1.29 0 0 1 .15-.3l.26-.39-.2-.15.08.11-.08-.11.08.11.31-.11C84.46 8.9 89 7.08 93.25 5.43l5.64-2.2 2.48-.95"/><use xlink:href="#Q"/><use xlink:href="#R"/><path d="M85.55 12.32l14.51-6c.88-.31 1.26-.11.64.55s-14.88 5.72-15.18 6.29.59 1.13.41 1.53-.58.83-.85.49-1-.72-.79-1.24.77-1.46 1.26-1.64"/><g clip-path="url(#E)"><path d="M84.03 6.06h17.29v9.48H84.03z"/><path d="M84.03 6.06v.23h17.06v9.02H84.26V6.06h-.23v.23-.23h-.23v9.71h17.75V5.84H83.8v.22"/></g><path d="M85.64 12.52l2.14-.89 7.39-3.06 3.31-1.36 1.65-.69a2.32 2.32 0 0 1 .59-.12h.1.06-.07-.01a1.13 1.13 0 0 1-.23.33h0a7 7 0 0 1-.89.44l-12.38 4.9-1.33.58-.4.21a.64.64 0 0 0-.25.22.77.77 0 0 0-.08.35 1.4 1.4 0 0 0 .28.74 1.23 1.23 0 0 1 .21.42h0a1.77 1.77 0 0 1-.23.35.41.41 0 0 1-.19.13h0a6.27 6.27 0 0 0-.54-.5c-.17-.16-.27-.31-.26-.39v-.11a9.25 9.25 0 0 1 .52-.92 1.59 1.59 0 0 1 .61-.6l-.15-.43a1.88 1.88 0 0 0-.83.78 8.92 8.92 0 0 0-.56 1 .71.71 0 0 0-.08.31 1 1 0 0 0 .41.72l.49.44a.49.49 0 0 0 .4.22.78.78 0 0 0 .52-.27 1.64 1.64 0 0 0 .31-.48v-.21a1.36 1.36 0 0 0-.28-.66 1.12 1.12 0 0 1-.21-.5v-.14h-.1l.08.08h-.1l.08.08a.68.68 0 0 1 .23-.14c1-.55 4.61-1.92 8-3.22l4.59-1.81 1.57-.66.49-.24a1.34 1.34 0 0 0 .29-.2 1.07 1.07 0 0 0 .36-.66.37.37 0 0 0-.18-.33.66.66 0 0 0-.33-.07 2.5 2.5 0 0 0-.73.14c-.24.08-1.25.49-2.65 1.06-4.13 1.55-11.79 4.76-11.79 4.76"/><use xlink:href="#R"/><use xlink:href="#S"/><use xlink:href="#S"/><g clip-path="url(#F)"><path d="M83.56 18.07h3.05v6.78h-3.05z"/><path d="M83.56 18.07v.23h2.82v6.33h-2.59v-6.56h-.23v.23-.23h-.23v7.01h3.5v-7.24h-3.5v.23"/></g><path d="M85.45 20.22l-.57 1a4.58 4.58 0 0 0-.59 1.72.71.71 0 0 0 .13.44.54.54 0 0 0 .45.19h.35v-.07h-.06v-.07h-.12-.06v.12a1 1 0 0 1-.26.39.57.57 0 0 1-.36.17c-.12 0-.26 0-.42-.37l-.21.1h.22a2.19 2.19 0 0 1 0-.39 5.53 5.53 0 0 1 1.17-3.15l.54-.7.34-.08-.07-.11v.11H86l-.07-.11v-.07l-.17.09.17.11v-.2l-.17.09.13-.06h-.14l.13-.06h-.14a2.68 2.68 0 0 1-.14.5 2 2 0 0 0-.1.29v.23h.46 0l.15-.44a2.17 2.17 0 0 0 .15-.61v-.16l-.23-.14a.35.35 0 0 0-.23.1 4.65 4.65 0 0 0-.77.92 5.86 5.86 0 0 0-1.25 3.41 2.81 2.81 0 0 0 0 .5v.06a1 1 0 0 0 .83.62 1 1 0 0 0 .67-.29 1.45 1.45 0 0 0 .39-.6 1.18 1.18 0 0 0 0-.25.43.43 0 0 0-.15-.33.44.44 0 0 0-.27-.09 1.11 1.11 0 0 0-.34.08l.09.21v-.23h-.17v-.15a4.54 4.54 0 0 1 .54-1.51l.38-.7.18-.29"/><use xlink:href="#S"/><use xlink:href="#T"/><path d="M85.64 4.37S86.08.23 87.37.8s1.14 1.64.56 1.75c0 0-.85-.89-1.15 0s-.78 3.88-1.4 4.03-.79-.12-.47-.35-.15-1.89-.59-2a1.67 1.67 0 0 0-.5 0 1.1 1.1 0 0 1-.82-.27c-.38-.37.09-2.73 1-1.81s1.61 2.47 1.7 2.22"/><g clip-path="url(#G)"><path d="M82.59.23h6.07v6.5h-6.07z"/><path d="M82.59.23v.22h5.84v6.04h-5.61V.23h-.23v.22-.22h-.23v6.72h6.53V0h-6.53v.23"/></g><path d="M85.87 4.39s0-.22.07-.56a11.06 11.06 0 0 1 .45-1.86 3.08 3.08 0 0 1 .37-.75c.14-.18.26-.25.37-.25h.15c.66.3.85.7.85 1a.33.33 0 0 1-.25.36l.05.22.16-.15a1.52 1.52 0 0 0-.27-.24 1.2 1.2 0 0 0-.63-.25.6.6 0 0 0-.37.13.87.87 0 0 0-.25.38c-.16.45-.36 1.42-.6 2.32a10.11 10.11 0 0 1-.38 1.17 2.2 2.2 0 0 1-.18.35l-.07.08h-.37v.05.05l-.09.06H85v-.11l-.09.06.09.07h-.07.13a.47.47 0 0 0 .17-.26 1.27 1.27 0 0 0 0-.28A3.14 3.14 0 0 0 85 4.79a2 2 0 0 0-.25-.48.69.69 0 0 0-.38-.31 1.46 1.46 0 0 0-.41 0h-.3a.68.68 0 0 1-.54-.16h0a1 1 0 0 1-.05-.36 2.46 2.46 0 0 1 .17-.96.91.91 0 0 1 .18-.3l.13-.07s.11 0 .23.14a10 10 0 0 1 1 1.4l.38.58.15.19.08.08a.3.3 0 0 0 .17.06l.22-.08.08-.11-.43-.15.16.06-.11-.13v.07l.16.06-.11-.13.13.15v-.2l-.13.05.13.15v-.02l.1-.13h-.1v.13l.1-.13a1.52 1.52 0 0 1-.22-.28A13.68 13.68 0 0 0 84.16 2a.79.79 0 0 0-.56-.29.63.63 0 0 0-.46.22 2.42 2.42 0 0 0-.48 1.49 1 1 0 0 0 .21.7 1.11 1.11 0 0 0 .85.3H84a1.23 1.23 0 0 1 .29 0h0a1.52 1.52 0 0 1 .34.57 2.87 2.87 0 0 1 .18.87v.16h0a.51.51 0 0 0-.25.4.38.38 0 0 0 .2.32.74.74 0 0 0 .34.07 1.59 1.59 0 0 0 .36 0 .69.69 0 0 0 .32-.29 7.37 7.37 0 0 0 .72-2l.5-1.94a.53.53 0 0 1 .1-.18h.09a.69.69 0 0 1 .36.16l.16.13.09.09h.12a.81.81 0 0 0 .62-.81A1.62 1.62 0 0 0 87.46.59a1 1 0 0 0-.33-.07.78.78 0 0 0-.53.21 4.32 4.32 0 0 0-.93 2.11 14 14 0 0 0-.25 1.5"/><use xlink:href="#T"/><use xlink:href="#U"/><path d="M93.11 14.94s.44-4.14 1.73-3.56 1.15 1.63.56 1.75c0 0-.85-.89-1.14-.06s-.82 3.94-1.41 4.08-.79-.11-.47-.34-.14-1.9-.58-2a2.15 2.15 0 0 0-.51 0 1.06 1.06 0 0 1-.84-.22c-.38-.38.08-2.73 1-1.81s1.61 2.47 1.69 2.21"/><g clip-path="url(#H)"><path d="M90.07 10.8h6.07v6.49h-6.07z"/><path d="M90.07 10.8v.23h5.84v6.04h-5.62V10.8h-.22v.23-.23h-.23v6.72h6.52v-6.95h-6.52v.23"/></g><path d="M93.34 14.96s0-.22.07-.55a11.16 11.16 0 0 1 .45-1.89 3.27 3.27 0 0 1 .37-.75.5.5 0 0 1 .37-.25h.15c.66.3.86.7.86 1a.35.35 0 0 1-.25.37v.22l.16-.16a1.75 1.75 0 0 0-.27-.23 1.12 1.12 0 0 0-.63-.25.6.6 0 0 0-.37.13.84.84 0 0 0-.25.37c-.15.46-.35 1.43-.6 2.32a10.25 10.25 0 0 1-.33 1.23 2.29 2.29 0 0 1-.19.36l-.07.08a1 1 0 0 1-.25 0h-.13 0l-.09.05h.11v-.05l-.09.05h.07-.08l.13-.06a.43.43 0 0 0 .17-.26.86.86 0 0 0 0-.28 3.18 3.18 0 0 0-.23-1.09 2.17 2.17 0 0 0-.25-.48.72.72 0 0 0-.38-.3 1.48 1.48 0 0 0-.41-.05h-.3a.69.69 0 0 1-.53-.17h0a1.13 1.13 0 0 1 0-.35 2.51 2.51 0 0 1 .17-.89 1.22 1.22 0 0 1 .18-.29l.13-.08s.11 0 .23.14a9.91 9.91 0 0 1 1 1.41l.38.58.15.19.08.08a.31.31 0 0 0 .17.05l.17-.06.08-.12-.43-.14.17.05-.03-.1v.08l.17.05-.17-.13.13.15v-.2H93l.13.15.1-.13h-.1v.16l.1-.13-.23-.27a14.21 14.21 0 0 0-1.39-1.91.76.76 0 0 0-.56-.28.64.64 0 0 0-.46.21 2.44 2.44 0 0 0-.47 1.5 1 1 0 0 0 .2.7 1.13 1.13 0 0 0 .85.29h.3a1 1 0 0 1 .3 0h0a1.25 1.25 0 0 1 .34.57 2.76 2.76 0 0 1 .18.86v.16h0a.54.54 0 0 0-.25.4.36.36 0 0 0 .2.32.67.67 0 0 0 .35.08 1.63 1.63 0 0 0 .35 0 .6.6 0 0 0 .35-.27 7.41 7.41 0 0 0 .72-2l.5-2a.37.37 0 0 1 .11-.17h.08a.78.78 0 0 1 .37.17l.15.12.08.08h.12a.79.79 0 0 0 .62-.81 1.61 1.61 0 0 0-1.13-1.37.76.76 0 0 0-.33-.08.86.86 0 0 0-.53.21 4.32 4.32 0 0 0-.93 2.12 13.22 13.22 0 0 0-.25 1.5"/><use xlink:href="#U"/><use xlink:href="#V"/><use xlink:href="#V"/><g clip-path="url(#I)"><path d="M94.67 30.63h5.86v6.44h-5.86z"/><path d="M94.67 30.63v.23h5.63v5.98h-5.41v-6.21h-.22v.23-.23h-.23v6.66h6.32V30.4h-6.32v.23"/></g><path d="M97 31.62a2.18 2.18 0 0 0-.08.54 1 1 0 0 0 .08.36.58.58 0 0 0 .28.32.49.49 0 0 1 .16.12v.08a1.41 1.41 0 0 1-.23.58c-.11.21-.28.47-.43.73a1.85 1.85 0 0 0-.29.81.49.49 0 0 0 .19.4.75.75 0 0 0 .48.13h.22a3.6 3.6 0 0 0 1.67-.7c.21-.15.39-.31.53-.43a2.63 2.63 0 0 1 .28-.21h.17 0 0a.54.54 0 0 1-.14.25 8.23 8.23 0 0 1-1.14 1.09 3 3 0 0 1-1.72.73 1.6 1.6 0 0 1-.52-.1 2.45 2.45 0 0 1-.68-.36c-.11-.1-.12-.14-.12-.21a1.12 1.12 0 0 1 .11-.36 4.09 4.09 0 0 0 .24-.61 1.43 1.43 0 0 1 .35-.59l.2-.22a.5.5 0 0 0 .14-.3.35.35 0 0 0-.19-.29 1.66 1.66 0 0 0-.32-.12 3.18 3.18 0 0 1-.74-.25.59.59 0 0 1-.18-.14v-.12c0-.06 0-.18.18-.36a3.56 3.56 0 0 1 .69-.65 1.3 1.3 0 0 1 .64-.29l.11.05a.37.37 0 0 1 .09.25h.45a.87.87 0 0 0-.2-.52.63.63 0 0 0-.45-.19 1.6 1.6 0 0 0-.9.37 4.19 4.19 0 0 0-.78.73 1 1 0 0 0-.29.65.69.69 0 0 0 .14.4 2.17 2.17 0 0 0 1.18.55 1 1 0 0 1 .19.07h0l.08-.1h-.13v.1l.08-.1h-.11.12-.11l-.29.32a1.83 1.83 0 0 0-.39.71c-.06.2-.14.37-.21.55a1.25 1.25 0 0 0-.15.54.7.7 0 0 0 .27.56 2.83 2.83 0 0 0 .81.43 1.87 1.87 0 0 0 .69.13 3.4 3.4 0 0 0 2-.82 8.74 8.74 0 0 0 1.21-1.15.93.93 0 0 0 .26-.55.43.43 0 0 0-.19-.35.5.5 0 0 0-.33-.1.63.63 0 0 0-.3.07 1.72 1.72 0 0 0-.37.28 3.8 3.8 0 0 1-2 1h-.37a1.59 1.59 0 0 1 .23-.58l.44-.74a1.86 1.86 0 0 0 .29-.8.57.57 0 0 0-.14-.38 1.11 1.11 0 0 0-.3-.22l-.07-.09v-.19a2.19 2.19 0 0 1 0-.28v-.09"/><use xlink:href="#V"/><use xlink:href="#W"/><use xlink:href="#W"/><g clip-path="url(#J)"><path d="M104.45 30.86h4.01v5.98h-4.01z"/><path d="M104.45 30.86v.23h3.79v5.52h-3.56v-5.75h-.23v.23-.23h-.22v6.2h4.47v-6.43h-4.47v.23"/></g><path d="M107.23 31.27a12.91 12.91 0 0 0-.83 1.42 6.39 6.39 0 0 0-.84 2.71 1.57 1.57 0 0 0 .84 1.52h.11a2.23 2.23 0 0 0 1-.26 1.66 1.66 0 0 0 .83-1.57 3.49 3.49 0 0 0 0-.44h0l-.06-.14a.35.35 0 0 0-.29-.16.92.92 0 0 0-.59.35 5.2 5.2 0 0 1-.49.47.77.77 0 0 1-.28.17h0 0v-.29a4 4 0 0 1 .76-1.9 5.75 5.75 0 0 0 .46-.78 2.57 2.57 0 0 0 .27-.89.42.42 0 0 0-.09-.29.36.36 0 0 0-.31-.15 1 1 0 0 0-.44.13l.21.4a.73.73 0 0 1 .23-.08h0v-.08h-.07v-.08h-.07 0a2.34 2.34 0 0 1-.23.69 5.55 5.55 0 0 1-.42.71 4.38 4.38 0 0 0-.85 2.17v.24a.87.87 0 0 0 .14.34.44.44 0 0 0 .33.16 1 1 0 0 0 .57-.28c.18-.15.35-.33.52-.5a1.33 1.33 0 0 1 .22-.19h0v-.1l-.09.06h.09v-.1l-.09.06h.07-.08-.01.23c-.221.127-.221.253-.23.38a1.22 1.22 0 0 1-.6 1.17 1.68 1.68 0 0 1-.82.2h0v.23l.1-.2a1.13 1.13 0 0 1-.6-1.12 6.15 6.15 0 0 1 .79-2.51l.55-1c.15-.27.25-.39.25-.39"/><use xlink:href="#W"/><path d="M64.66 33.03l-1.53 1.94-1.95-1.48 1.54-1.94"/><path d="M64.66 33.03l-1.53 1.94-1.95-1.48 1.54-1.94 1.94 1.48"/><g clip-path="url(#K)"><path d="M61.18 31.55h3.48v3.42h-3.48z"/><path d="M61.18 31.55v.22h3.26v2.97h-3.03v-3.19h-.23v.22-.22h-.23v3.65h3.94v-3.88h-3.94v.23"/></g><path d="M64.49 32.89l-1.4 1.76-1.58-1.2 1.39-1.76-.36-.28-1.68 2.12 2.31 1.75 1.67-2.11"/><path d="M64.66 33.03l-1.53 1.94-1.95-1.48 1.54-1.94"/><path d="M67.89 32.64l-1.53 1.94-1.95-1.48 1.54-1.94"/><path d="M67.89 32.64l-1.53 1.94-1.95-1.48 1.54-1.94 1.94 1.48"/><g clip-path="url(#L)"><path d="M64.41 31.16h3.48v3.42h-3.48z"/><path d="M64.41 31.16v.23h3.26v2.96h-3.03v-3.19h-.23v.23-.23h-.22v3.65h3.93v-3.88h-3.93v.23"/></g><path d="M67.72 32.5l-1.4 1.77-1.58-1.21 1.39-1.76-.36-.28-1.68 2.12 2.31 1.76 1.67-2.12"/><path d="M67.89 32.64l-1.53 1.94-1.95-1.48 1.54-1.94m23.72 2.08l-1.53 1.95-1.95-1.49 1.54-1.94"/><path d="M89.67 33.24l-1.53 1.95-1.95-1.49 1.54-1.94 1.94 1.48"/><g clip-path="url(#M)"><path d="M86.19 31.76h3.48v3.42h-3.48z"/><path d="M86.19 31.76v.23h3.26v2.97h-3.03v-3.2h-.23v.23-.23h-.22v3.65h3.93v-3.87h-3.93v.22"/></g><path d="M89.5 33.1l-1.4 1.77-1.58-1.2 1.39-1.76-.36-.29-1.68 2.12 2.31 1.76 1.67-2.12-.35-.28"/><path d="M89.67 33.24l-1.53 1.95-1.95-1.49 1.54-1.94m17.1-28.55c-.15-.73-.61-1.42-.63-1.22a16.7 16.7 0 0 1-1.2 1.76 3.79 3.79 0 0 1 .11.5 2079.77 2079.77 0 0 0 .84 13.9c.13 1.83.37 6.06 0 6.92s-3.5 1.81-5.06 1.7a2.1 2.1 0 0 1-2-1.4 22.16 22.16 0 0 1 4-1.38c1.84-.54 1-2 1-2-2.15-2.27-7.54-2.37-10-2.29s-2.81 1.08-3.2 2.33.21 1.08.21 1.08c.75-.91 1.37-.17 2.82.77s-.14 1-.14 1c-3 .43-8.7 3.84-11.64 6.68a8.39 8.39 0 0 1-5.8 2.67c-3.39-.51 1.14-7.54 1.76-8.36s5-1.77 6.41-5.17-1.71-3.67-3.08-3.8 0-.94 0-.94c3.28-2.44.37-5.72-.06-6.44s.52-.95.52-.95-2.2-2.88-2.28-2.63-.88 1.86-.88 1.86 1.32 2.84 2.11 4.26.88 2.2.39 2.59-5.58 1.21-5.58 1.21l-.75 2.24c.62-.09 4 .69 6.33.95s2.16 1.08 2.16 1.08c-.71 1.67-9.89 5.25-9.89 5.25-5.67 2.11-8.62-1.2-8.62-1.2-2.81-2 .66-10.39.66-10.39 2.2 1.29 2.46-1 2.86-2.11s-.44-1.13-.44-.87-.66 1-.66 1c-3-.73 0-6.38 1-8s.44-1.51.44-1.51c-5.41 5.6-3.65 10.69-3.65 10.69l-.22.74a41.83 41.83 0 0 0-1.89 4.37c-2.35 6 1.5 8.92 1.5 8.92 3.82 3.1 9.51.5 11.11-.09S73 29.05 73 29.05a5.63 5.63 0 0 0-.22 6.23c2.11 3.32 6.48.18 9.23-2.82s10.2-5.69 10.2-5.69c2.44-1.25 3.12.56 3.12.56a7.91 7.91 0 0 0 4 1.94c4.88.56 6.07-4.07 6.31-5s-.73-14.53-.86-16 .33-1 .46-.54.29.73.8.41-1.08-4.16-1.24-4.9m-9.9 20.49s-1.8-1.33-1.71-1.51 4.39-.13 4.66.65-2.47.91-2.95.86zm5.42-9.8c-.61-.06-.64-1.43-1.09.06 0 0-1.57 2.44-.31 2.76a1.88 1.88 0 0 0 2.34-1.38 1.21 1.21 0 0 0-.94-1.44m.08 1.52c-.22.31-1.28.82-1.23.31s.65-.91.61-1.16c0 0 .84.55.62.85z"/><use xlink:href="#X"/><use xlink:href="#X"/><g clip-path="url(#N)"><path d="M106.82.94h3.54v26.25h-3.54z"/><path d="M106.82.94v.23h3.32v25.79h-3.09V.94h-.23v.23-.23h-.22v26.48h3.99V.71h-3.99v.23"/></g><path d="M108.84 8.52a4.89 4.89 0 0 1 0-.51 1.36 1.36 0 0 1 0-.42h0l-.09-.07v.14l.11-.06-.11-.08-.06.11h.06v-.11l-.06.11v-.05.05-.05.05a1.75 1.75 0 0 1 .15.33 1.72 1.72 0 0 0 .16.56.53.53 0 0 0 .47.3.79.79 0 0 0 .49-.2.41.41 0 0 0 .16-.26 1.36 1.36 0 0 0 0-.29 13.61 13.61 0 0 0-.62-2.94l-.7-2.52a4.69 4.69 0 0 0-.26-1.09 2.51 2.51 0 0 0-.19-.37l-.09-.12A.29.29 0 0 0 108 .9l-.21.12v.13h.07 0c-.124.142-.191.28-.27.41-.34.62-1 1.6-1 1.6v.17l.05.2c0 .11 0 .26.06.36s0 1 .11 2.35l.66 14.1.2 5.62v.36l2 1.3v-1.07c0-3.76-.72-16.44-.83-18h-.46c.11 1.52.84 14.21.84 17.94v.65h.23l.12-.19-1.53-1-.12.18h.22v-.24c0-1.91-.11-4.31-.19-5.65l-.43-8.95-.35-7.52c0-.26-.12-.61-.12-.62l-.22.06.2.12.59-1c.15-.25.3-.51.41-.72a1.82 1.82 0 0 0 .14-.28.57.57 0 0 0 .08-.23h-.16l.14.08v-.07h-.16l.14.08-.21-.04v.21l.18-.1-.18-.11-.1.16h.1v-.14l-.1.16v-.06l-.06.05v-.06l-.06.05a1.89 1.89 0 0 1 .25.46 5.07 5.07 0 0 1 .26.88c.07.42.4 1.46.71 2.57a14.65 14.65 0 0 1 .6 2.82v.18h.1a.54.54 0 0 1-.22.11l-.08-.08a3.19 3.19 0 0 1-.14-.39 1.36 1.36 0 0 0-.17-.41L109 7.3a.36.36 0 0 0-.24-.11.32.32 0 0 0-.24.11.7.7 0 0 0-.12.3 2.68 2.68 0 0 0 0 .44v.55"/><use xlink:href="#X"/></svg>