<?xml version="1.0" encoding="utf-8"?>
<svg xmlns="http://www.w3.org/2000/svg" viewBox="0 0 203 97.12">
  <path d="M51.61 0h.53a1.88 1.88 0 0 1 1.54 1.23c.86 2.58-3.11 3.26-3.61 1.06C49.76 1 50.43.39 51.61 0zM12.68.11a1.81 1.81 0 0 1 2.24 2.23c-.47 1.9-3.25 1.61-3.68.06A1.77 1.77 0 0 1 12.68.11zm51.53 0v20.53H36.93c.54 4.8-3.53 7.5-7.65 5.95A5.5 5.5 0 0 0 33.05 22c.12-1.36.05-3 .05-4.58 0-2.25.24-4.9-.53-6.1 1.84-.48 2.35-2.27 4.36-2.56v7.87c.9.09 1.94 0 2.87.11 0-1.71.33-4.45-.43-5.38 1.77-.55 2.31-2.33 4.37-2.6v7.93c.85.12 1.93 0 2.87.05 0-1.7.42-4.32-.48-5.32 1.76-.61 2.39-2.32 4.41-2.66v7.93c.88.11 2 0 2.93.05 0-1.76.35-4.29-.48-5.38 1.78-.54 2.3-2.34 4.36-2.6v7.93c.87.11 2 0 2.93.05V7c0-1.66.25-3.49-.54-4.36 1.78-.54 2.4-2.48 4.47-2.53zm7.45 2.5v.05C70.72 3.79 71 6 71 8v12.64h-3.87L67.19.11c2.13.2 2.5 2.14 4.47 2.5zm-23.3.8a1.79 1.79 0 0 1 2 2.39 1.922 1.922 0 0 1-3.61-1.32 1.74 1.74 0 0 1 1.61-1.07zm6.75 0a1.81 1.81 0 0 1 2.08 1.75c0 2.49-3.8 2.35-3.83.06a1.69 1.69 0 0 1 1.75-1.81zM8.69 27.13h-.95A8.5 8.5 0 0 1 1.2 23.4c-1.39-2.14-1.55-5.48-.59-8.35 1.67-5 6.36-7.8 9.52-10.79-2.66 3-6.21 5.24-7.92 9.35-.85 2.05-1.14 5.27-.21 7.29a5.5 5.5 0 0 0 5.31 3.35 5.67 5.67 0 0 0 5.32-3.61c-2.32 0-4.79.07-7-.05.2-2.55-.38-5.45.32-7.29.92-2.44 3.82-2.62 6.59-3.2a27.57 27.57 0 0 0 3.89-1.22v5.91a53.67 53.67 0 0 1 0 5.95 7.38 7.38 0 0 1-2.67 4.37 9.36 9.36 0 0 1-5.07 2.02zm.9-10.37h2.88v-2.92c-2.04-.15-3.4.67-2.88 2.92zM12.73 4.9a1.92 1.92 0 0 1 2.19 1.16c.68 2.31-2.8 3.37-3.62 1.34a1.8 1.8 0 0 1 1.43-2.5zm17.45 3.88s.05 0 .05.05c-.21 3.92.3 9.27-.05 13.3-.31 3.53-3.65 5.89-7.66 4.41a5.37 5.37 0 0 0 3.77-5.85c-2.18-.13-4.59 0-6.85-.05.15-3.35-.58-6.78 1-8.51a7.39 7.39 0 0 1 4.46-2 19.85 19.85 0 0 0 5.28-1.35zm-6.91 8h3a29.18 29.18 0 0 0 .05-3c-2.23-.24-3.57.67-3.05 2.98z" fill-rule="evenodd" style="fill: rgb(58, 95, 137);"/>
  <path d="M91.58 23.7h0M2.71 37.78a8.48 8.48 0 0 1 2.69-.37 10.85 10.85 0 0 1 1.74.11l2.43.28a17 17 0 0 1-2.69 1.92 33.42 33.42 0 0 0-4.43 2.93 1.65 1.65 0 0 0 .71-.17l.81-.4a3.71 3.71 0 0 0 .75.06q2.79 0 5.43-3.32l3.74-5.63c-.59 0-1.51 0-2.74-.16a20.29 20.29 0 0 0-2.74-.17H6.93a6.79 6.79 0 0 0-1.32.28 5.83 5.83 0 0 0-3.27 2.36 15 15 0 0 0-2.06 3.71H.6a5.22 5.22 0 0 1 2.11-1.43z" style="fill: rgb(58, 95, 137);"/>
  <path d="M74.7 34.58c-1-.15-.93-1.48-2-1.44-1.33 0-2 3.86-2.27 5.26-.47 2.39-.66 4.7-2.06 5.36-.67-3-1.46-5.9-3.1-7.94-.55.14-.53.48-1 .52-.89 0-1.59-1-2.17-1.34-3.1 6.47-9.78 9.46-17.21 11.65 1.31-1.62 3.41-2.32 5.16-3.4 3.33-2.07 7.19-4.22 10-6.91 1.47-1.42 2.23-3.19 3.51-5 3.86.61 4.63 4.32 5.36 8.05.86-2.7 1.27-7.69 3.51-9.18 2.07-1.34 4.14 2.86 2.27 4.37z" fill-rule="evenodd" style="fill: rgb(58, 95, 137);"/>
  <path d="M121.35.92c-10.15 3.48-19.9 7.35-29.94 10.94a12.45 12.45 0 0 0-1.19 3.44l30.17-11.64c.38-.66 1.46-1.93.96-2.74zM30.68 46.71c1-2.13 2.75-3.6 3.69-5.82a13.45 13.45 0 0 0-5.7-2.89 24.32 24.32 0 0 0-4.28 6.18 18.34 18.34 0 0 0 4.39 2.25 32.68 32.68 0 0 0-3.92 5.94 20.9 20.9 0 0 0 5.82 2.85 71.54 71.54 0 0 0 4.16-6.17C33.73 48 32 47.56 30.68 46.71zm123.81-32.95l-29.82 10.93a19.46 19.46 0 0 0-1.3 3.44l30.29-11.64c.24-.65 1.68-2.28.83-2.73zm44.91 23.52c.81.42 1.37 1.09 2.14 1.54.41-1.07 1.69-2 1.42-3.2-.21-1-1.52-1-2.14-1.79.45-1.6 1.55-4.6.48-6.29-1.9-3-7.08 2.3-6.89 5.23.14 2.23 2 2.59 3.45 3.8-3.8 3.66-8.74 6.18-13.31 8.91a18.17 18.17 0 0 0-4.4 3.09c8.16-2.03 14.64-5.72 19.25-11.29zm-2.73-6.18c1.23-2.13 3.67-.89 2.73 2a5.36 5.36 0 0 1-2.73-2zm-47.1.58l6.18 4.16a8.74 8.74 0 0 0 1.66-2.61c.48-.87 1.4-2.14 1.19-3.09-.14-.64-1.76-1.59-2.73-2.26a16.6 16.6 0 0 0-3.44-2 25.22 25.22 0 0 0-2.86 5.8zm20.72 20.45a55.69 55.69 0 0 1 1.19 8.2c.07 1.54-.3 2.9.36 4.4 1.73-6.67 0-15-1.67-20.44 1.49-1.68 4.37-2 6.78-2.73.42-.94 1.38-1.82 1.3-3-.1-1.52-3.39-4-4.75-4.28-2.93-.51-3.58 2.78-3.56 5.7.93-.74 2.59-3.1 3.56-1.06-6.25 1.13-4.28 7.81-3.21 13.21zm-21.97-14.87c-.68-.46-2.38-2.08-3.32-1.9-1.3.26-1.35 3.32-2.38 4.28-1.87-1.38-3.52-3-5.94-3.8a26 26 0 0 0-2.85 5.7c2.14 1.35 3.95 3 6.29 4.16 1-1.19 1.57-2.87 2.38-4.28l5.7 3.92c.66-1.3 3.23-3.72 2.85-5.7-.15-.82-1.85-1.78-2.73-2.38zM104.6 88.69a15.25 15.25 0 0 0-3.44-2 17.39 17.39 0 0 0-2.26 4.4 26.41 26.41 0 0 0-5.9-3.95A20 20 0 0 0 90.11 93l6.18 4.15a24.42 24.42 0 0 0 2.37-4.27c2 1.17 3.65 2.77 5.82 3.8.59-1.21 3.13-3.87 2.86-5.58-.14-.84-1.83-1.79-2.74-2.41zM83 38l.25-.11c0 5.87.4 12.56.82 19.08S85.44 69.68 90 71.73c1.82.83 5.57 1.26 7.48.48 7-2.86 7.11-18.77 1.43-23.41-1.06 1.81-2.26 3.91-1.78 6.42.39 2.09 3.56 4.49 3.33 6.89-.32 3.13-6.65 3.59-9.15 2.26-3.53-1.87-3.65-6.8-3.92-12.59l-.6-16-.15.07c-.38-6.06-.35-12.7-1-19.07C85 11.14 83.94 3.67 81.31.05c-.83 1.23-2.22 4.1-2.14 6.17a17.81 17.81 0 0 0 1 3.45C82.34 17.79 82.62 28.25 83 38zm115.69 14a5.51 5.51 0 0 0-5-1.07c-3.22.89-5.29 3.94-7 6.42-.51.73-1.22 1.16-1.55 1.66-1.49 2.26-2.09 5.85-4.16 8.08-2.46 2.66-7.18 4.4-11.4 4.28-6.8-.2-7.35-8.78-8.56-14.85a60.8 60.8 0 0 0-2.85-10.93c-.41-1-.82-2.29-1.78-2.86a13.37 13.37 0 0 0-1.78 7.73c.19 1.88 1.46 4.59 2.14 7.48a56.39 56.39 0 0 1 1.54 8.06 8.61 8.61 0 0 1 0 1.9c-.41 2.7-4.18 4.85-7.48 3.21-1.32-.65-2.25-2.57-2.38-4.28-.08-1.14.6-2.44-.12-3.68-1.83 0-2.87 1.78-4 2.85s-2.43 2.34-3.68 3.44c-3.44 3-13.44 6.83-16.75 1.19-1.75-3-2-8.47-2.85-12.83-2.11-11.47-4.18-22.1-8.91-30.53-.9-1.6-2.5-4.24-3.57-4.51-.47 1.11-1.66 5.7-1.42 7.36a17.58 17.58 0 0 0 1.42 3.33 92.15 92.15 0 0 1 6.42 17.94c.6 2.59 1.53 5.75 1.19 8.55-.31 2.5-3.51 5.43-5.71 7.6a54.48 54.48 0 0 1-14.53 10.25c-3.21 1.52-7.78 3.32-12.47 2.73-5.6-.69-4.7-7.34-3.69-12.11.62-2.91 1.41-4.88 1.67-8.08-1.42 1.14-1.83 3.38-2.5 5.46-1.76 5.55-3.5 15.17.24 19.72 3.59 4.39 12.17 1.64 16.63-.51a50.8 50.8 0 0 0 9.27-5.7c6-4.58 11.25-9.52 12.83-17 1.29 6.94 1.24 15 6.53 17.7a13.81 13.81 0 0 0 6.89 1c5.17-.5 8.54-4 11.17-7 .95-1.08 1.85-2.43 3.21-3 .4 4.86 2.62 9.1 8.2 8.08 3.81-.7 5.36-5.77 6.29-9.27 1.22 5.47 4.65 9.79 11.41 9s10.68-7.71 13-12.71c3.78 2.71 7.61 5.38 14.26 5.23 4.4-4.12 3.83-15.63-.17-19.33zM197 63.66c-3.18-.32-6-2-8.31-3.57 2.31-4.23 9.41-.73 8.31 3.57zM73.4 56.11c-3.4.33-6.47 2-9.37 3.29l-2 .8-5.14 2-2.83 1.09a98.8 98.8 0 0 1-23 5.8c-10.49 1.24-20.95-.05-25.9-5.94A8.7 8.7 0 0 1 3.07 58c-.14-5.41 2.36-8 3.09-12.71-1.41.6-2 2.32-2.61 3.68A25 25 0 0 0 1.77 65C3.4 71.4 8 75.36 15.43 76.67 23.14 78 31.29 76.48 38 74.88a156.56 156.56 0 0 0 16-4.83h.07l6.59-2.56v-.09c1.27-.46 2.6-1 4-1.47l2.81-1c2.05-.71 4.87-2.22 7.25-1.07-1.57 3.7-4.6 6.14-6.89 9.15A21.7 21.7 0 0 0 63 84.15c1.58-1.65 2.32-3.85 3.68-5.82A56.23 56.23 0 0 1 71 73.1c1.48-1.65 2.84-3.48 4.27-5.35a15.31 15.31 0 0 0 3.33-6.29c.77-3.94-1.35-5.72-5.2-5.35z" style="fill: rgb(58, 95, 137);"/>
</svg>