<?xml version="1.0" encoding="utf-8"?>
<svg xmlns="http://www.w3.org/2000/svg" viewBox="0 0 235.95 80.83">
  <path d="M228.56 15.68v46.27h7.39V15.68h-7.39zm-93.62 14.86a10.36 10.36 0 0 0-10.35 10.35v9.44a10.36 10.36 0 0 0 10.35 10.35h3v2.46c0 8.09-3 10.35-3 10.35a10.36 10.36 0 0 0 10.35-10.35V40.89a10.36 10.36 0 0 0-10.35-10.35zm3 22.75h-3a3 3 0 0 1-3-3v-9.4a3 3 0 0 1 5.92 0zm78.87-35.43v33.66a3 3 0 0 1-2.95 2.95h-3.47a10 10 0 0 0 .42-2.86V34.44h-7.39v17.17a3 3 0 0 1-2.26 2.86h-3.76a10.4 10.4 0 0 0 .41-2.86V34.44h-7.39v17.17a3 3 0 0 1-2.25 2.86h-3.3a10 10 0 0 0 .42-2.86V34.44h-7.39v17.17a3 3 0 0 1-2.26 2.86H174a3 3 0 0 1-3-2.95v-1.23l.08-15.85H150.3v28.21c0 9.4-3 10.35-3 10.35a10.36 10.36 0 0 0 10.35-10.35v-21h5.91v9.86A10.36 10.36 0 0 0 174 61.86h39.91a10.36 10.36 0 0 0 10.35-10.34V15.68h-7.4zm-112.16 7.71a4.48 4.48 0 1 0-4.48-4.47 4.47 4.47 0 0 0 4.48 4.47zm10.25 0a4.48 4.48 0 1 0-4.47-4.47 4.48 4.48 0 0 0 4.47 4.47zm74.37 2.59a4.48 4.48 0 1 0-4.48-4.47 4.47 4.47 0 0 0 4.48 4.47zm5.92-9.35a4.48 4.48 0 1 0-4.48-4.48 4.47 4.47 0 0 0 4.48 4.48zm0 4.88a4.48 4.48 0 1 0 4.47-4.48 4.47 4.47 0 0 0-4.47 4.48zm-84.08 5.41a10.36 10.36 0 0 0-10.34 10.35v9.45a10.35 10.35 0 0 0 10.34 10.34h2.96v2.44a3 3 0 0 1-3 2.95h-12a3 3 0 0 1-3-2.95V44.07h-7.25v17.64a10.35 10.35 0 0 0 10.34 10.34h12a10.36 10.36 0 0 0 10.35-10.34V39.45a10.36 10.36 0 0 0-10.4-10.35zm3 22.76h-3a3 3 0 0 1-3-3v-9.41a3 3 0 0 1 5.91 0zm-95.07-8.47l-6.56-11.86H9.33v17.76h3.01V37.71l6.46 11.58h3.24V31.53h-3v11.86zm9.66-1.92h8.04v-3H28.7v-3.94h8.64v-3H25.46v17.76h12.18V46.3H28.7v-4.83zm25.44 2.47l-2.81-12.41h-3.84l-2.93 12.2-2.41-12.2h-3.31l3.82 17.76h3.51l3.18-13.28 3.19 13.28h3.43l3.89-17.76H56.6l-2.46 12.41zm10.73-9.1a3.42 3.42 0 0 1 2.21-.65 3 3 0 0 1 2 .61 3.16 3.16 0 0 1 .89 2l3.23-.15a5.41 5.41 0 0 0-1.6-3.92 6.34 6.34 0 0 0-4.54-1.46 7.34 7.34 0 0 0-3.15.61 4.55 4.55 0 0 0-2 1.8 5 5 0 0 0-.69 2.54 4.87 4.87 0 0 0 1.47 3.58 8.41 8.41 0 0 0 3.65 1.75l2.59.78a2.64 2.64 0 0 1 1.17.77 1.73 1.73 0 0 1 .33 1.07 2.3 2.3 0 0 1-.79 1.72 3.37 3.37 0 0 1-2.36.73 3.26 3.26 0 0 1-2.28-.87 4.38 4.38 0 0 1-1.16-2.58l-3.14.34a7.1 7.1 0 0 0 1.94 4.54 6.49 6.49 0 0 0 4.67 1.56 8.28 8.28 0 0 0 3.47-.61A4.69 4.69 0 0 0 73 47a6.14 6.14 0 0 0 .12-5.69 4.66 4.66 0 0 0-1.77-1.81 14.44 14.44 0 0 0-3.49-1.27 8.17 8.17 0 0 1-3-1.19 1.43 1.43 0 0 1-.48-1.08 1.33 1.33 0 0 1 .49-1.12zm15.96 5.58a40.42 40.42 0 1 0-40.41 40.41 40.42 40.42 0 0 0 40.41-40.41zM25.43 75.9A38.73 38.73 0 0 1 8.48 62a38.62 38.62 0 0 1-3.55-36.57 38.76 38.76 0 0 1 14-16.95 38.62 38.62 0 0 1 36.48-3.55 38.539 38.539 0 0 1-30 71z" style="fill: rgb(58, 95, 137);"/>
</svg>