<svg xmlns="http://www.w3.org/2000/svg" xmlns:xlink="http://www.w3.org/1999/xlink" viewBox="0 0 238 95.43"><g fill-rule="evenodd"><path d="M149.31 48.24c2-3.26 3.53-6.51 5.59-9.4a79.18 79.18 0 0 1 7.1-7.92c4.87-5.2 9-10.91 10.27-20a14.81 14.81 0 0 1 1.65 2.44c1 2.18.59 4.86.91 7.63a5.88 5.88 0 0 0 .28 1.18c.5 1.35 2.13 2.52 2 3.52-.1.75-1.34.88-1.47 1.46s.29.8.18 1.47a2.81 2.81 0 0 1-1.65 1.07c.28.51 1.2.18 1.2 1s-1 .58-1.29 1.57c-.23.76 0 1.72-.28 2.15-.79 1.4-4.67.3-6.87.69a8.57 8.57 0 0 0-3.86 2.54 39.65 39.65 0 0 0-6.15 9.36c-.41.85-1.53 2.62-1.38 3.81.1.81 1.35 2.07 1.93 2.65a13.09 13.09 0 0 0 2.56 2 65.4 65.4 0 0 1 9.08-15.26c1.07-1.39 2.65-3.39 4.32-3.82s6.12.67 6.87-.78c.25-.48 0-1.39.19-2.14.29-1 1.51-.79 1.28-1.77-.13-.59-.75-.3-1.19-.68 1.16-.28 2.15-1.12 1.47-2.55.35-.79 1.38-.66 1.46-1.57s-.87-1.55-1.19-2a8.27 8.27 0 0 1-1-2.25 41.13 41.13 0 0 1-.09-4.59c-.54-7.45-8.34-10.84-15.86-10.37-6.83.42-13.38 2.82-14 11.15-6.15-.18-9.75 3.19-11 9-2.04 9.22.63 19.89 8.94 20.41zm30.26-10.87c-1.72.47-3.33 2.52-4.49 4a69.77 69.77 0 0 0-9.64 16.43c6.89 0 10.27-4.65 13.12-9.29 10.89.8 14.82-6 14.22-17.41-.26-4.74-2.05-9.36-5.69-11.06v.3c-.16 2.81.15 4 1.1 5.47.42.66 1.24 1.32 1.1 2.05s-1.22.71-1.38 1.47c-.09.47.17.5.19 1.27a2.42 2.42 0 0 1-1.65 1.17c.22.53 1.27.16 1.19 1-.46.77-1 .64-1.29 1.66-.2.79 0 1.82-.45 2.34-.98 1.23-4.75.23-6.33.6zm42.03 25.19c-1.08 0-2.18.89-3.31 2.67l-2.6 4.2 3.45 2.53a19.4 19.4 0 0 0 3.35 2l2.95-3.91a7.68 7.68 0 0 0 1.7-3.82l-4-3.14a3.41 3.41 0 0 0-1.54-.53zM12.36 65.89a10.43 10.43 0 0 1 3.28-.45 21.07 21.07 0 0 1 2.12.14l3 .34a21.48 21.48 0 0 1-3.29 2.34A41.15 41.15 0 0 0 12 71.83a1.92 1.92 0 0 0 .87-.21l1-.48a4.18 4.18 0 0 0 .9.07q3.4 0 6.62-4 2.31-3.48 4.61-6.92c-.73 0-1.84-.06-3.35-.2l-3.34-.21-1.8.07a7.6 7.6 0 0 0-1.61.34 7.07 7.07 0 0 0-4 2.82 18.12 18.12 0 0 0-2.5 4.53h.38a6.34 6.34 0 0 1 2.58-1.75zm74.51-7.05a24.88 24.88 0 0 0 6.44-13.36q-1.69-3.15-9-3.44-7.31-.29-9.17-4.1l-3.94 1.91q-5.73 2-9 9.54a38.65 38.65 0 0 0-2.91 10.73C55 62.61 50.91 67 47.06 63.84q-3.95-2.56-7.7-12.59A17.41 17.41 0 0 0 34.8 44a25.57 25.57 0 0 0-1.7 9.63l4.47 7.92A19.42 19.42 0 0 1 39 66.81a36.18 36.18 0 0 1-9.93 13.83 55.84 55.84 0 0 1-14 8.4Q10 91.23 0 94.47q2.07-.57 15.65-2.29 9.5-1.23 14.77-4.48 4.2-2.67 7.33-9 1.7-3.44 4.84-10.5c4.41 6.94 13.35 4.67 19 .13v-.12l2.56-1.29a18.1 18.1 0 0 0 5.11.66 18.36 18.36 0 0 0 5.17-.58 27.86 27.86 0 0 0 12.44-8.16zM75.78 55.3l1.6-5.91q3.41.48 6.35.81a11.28 11.28 0 0 1 4.39 1.19 25.88 25.88 0 0 1-6.31 4.82 23.91 23.91 0 0 1-7.38 2.53 18 18 0 0 0 1.35-3.44zM70 57.4a5.88 5.88 0 0 1-3 1.15 3 3 0 0 1-1.79-.67 9.75 9.75 0 0 1-1.16-1.81 4.89 4.89 0 0 1-.45-2.1 4.76 4.76 0 0 1 .18-1.14 8.61 8.61 0 0 1 2.55-2.3 5.69 5.69 0 0 1 2.91-1 3.07 3.07 0 0 1 2 .67 3.9 3.9 0 0 1 1.16 2.29 4 4 0 0 1 .37 2 4.19 4.19 0 0 0 .08 1.05c-.18.18-1.16.78-2.85 1.86zm62.28-30.99a12.92 12.92 0 0 0 2.29-2.68q-1.44.68-8.69 3.53a33 33 0 0 0-8 4.2 10.53 10.53 0 0 0-3.67 4.2l14.89-7.06a18 18 0 0 0 3.18-2.19zm80.56-17.65a19.88 19.88 0 0 0 3.67-4.24 55.12 55.12 0 0 1-7.69 4.1 36.49 36.49 0 0 0-7.74 4.43 12.49 12.49 0 0 0-3.27 4.16q.54-.39 9.67-5.06a28.11 28.11 0 0 0 5.36-3.39zM89 70.92A53.83 53.83 0 0 1 81.27 75a36.49 36.49 0 0 0-7.74 4.43 12.3 12.3 0 0 0-3.26 4.15q.53-.37 9.66-5.06a27.64 27.64 0 0 0 5.36-3.38A19.44 19.44 0 0 0 89 70.92zm141.58-38.45a50.36 50.36 0 0 1-9.09-1.39 50.41 50.41 0 0 0-9.88-1.38h-1a6.36 6.36 0 0 0-1.21.1q-6.7 1.71-9.3 9.73c-.06.19-.87 5.32-2.54 14.8-.95.57-2.63 1.48-3.78 2.09l-1.25.63a72.67 72.67 0 0 1-12.15 4.6 77.55 77.55 0 0 1-20.79 2.85 72.89 72.89 0 0 1-13.17-1.14 53.32 53.32 0 0 1-12.12-3.77 2.7 2.7 0 0 1-2.08-1.43 7.15 7.15 0 0 1-.49-2.92c0-.53 0-1.37.11-2.51a7.21 7.21 0 0 0-.48-3 4.24 4.24 0 0 0-1.23-1.54 10.15 10.15 0 0 0-3-3.49 6.63 6.63 0 0 0-4-1.43q-5.35 7-5.35 17.49a8.21 8.21 0 0 0 1.66 2.75 4.23 4.23 0 0 0 2.41 1.14l2.57-.69a4.5 4.5 0 0 0 2.25-1.71l.64 3.08A72.14 72.14 0 0 1 117.45 77a61.69 61.69 0 0 1-12.85 9.72q-7.83 4.4-21.6 8.41a105.57 105.57 0 0 0 13.18-.8 76.56 76.56 0 0 0 12.43-2.63q7.6-2.17 14-10.85a62.37 62.37 0 0 0 8.46-16.35 52.25 52.25 0 0 1 7.23 4.12 39.7 39.7 0 0 0 7.34 4 44 44 0 0 0 14.58 2.51 52.85 52.85 0 0 0 15.32-2.4 85.72 85.72 0 0 0 14.36-5.94l3.2-1.67 2.6-1.42.45-.25c1.19-.32 1.44 4.37 1.65 7.71s.7 5.52 1.47 6.54A9.81 9.81 0 0 0 200 75a25.77 25.77 0 0 0 .18-3.11c0-.37-.08-1.68-.23-3.91s-.22-4-.22-5.44q6.81-5.62 13.6-11.35a63.11 63.11 0 0 1 14.31-9.07l7.43-2.38 2.95-9a15.94 15.94 0 0 1-7.44 1.73zm-24 15.45l-6 4.39a20.94 20.94 0 0 1 1.08-7.15 7.75 7.75 0 0 1 4.85-5.16l3.08-.34c.5-.04 1.24 0 2.2 0a17.23 17.23 0 0 1 2.55.19 6.5 6.5 0 0 1 2.19.66q-3.67 2.84-9.93 7.41zM100.79 34.84q-.44 7.47-.43 13a71.12 71.12 0 0 0 1.23 13.65 42.81 42.81 0 0 0 4.29 12c.25.31.58.58.86.88v-5.18c-.77-2.64-1.16-20.79-1.16-23.93a120 120 0 0 1 1.16-14q2.33-18.3 2.33-22.9V5.5a14.53 14.53 0 0 0-.29-2.86c-3.3 2.65-5.43 4.46-6.4 5.41a14.12 14.12 0 0 0-3.76 6l3.19-.51q0 3.82-1.02 21.3zM133.6 84h-.26l-.51.1-.71.16-.88.24v.45h.42a.56.56 0 0 1 .46.18 1.14 1.14 0 0 1 .15.68v5.57a6.52 6.52 0 0 1-.13 1 5.21 5.21 0 0 1-.27.84 2.85 2.85 0 0 1-.38.63 3.4 3.4 0 0 1-.54.53l-.75.55.26.51a7.79 7.79 0 0 0 1.79-1.08 3.84 3.84 0 0 0 1.11-1.45 8.81 8.81 0 0 0 .51-3.31v-5.3c.01-.22-.08-.3-.27-.3z"/><use xlink:href="#B"/><path d="M146.87 90.25a2.44 2.44 0 0 1 0-.55v-3a5.75 5.75 0 0 0-.11-1.25 2.07 2.07 0 0 0-.37-.85 1.47 1.47 0 0 0-.7-.49 3 3 0 0 0-1.06-.16 4 4 0 0 0-.53 0l-.71.15-.83.25-.9.35.19.62A9.84 9.84 0 0 1 143 85a4.32 4.32 0 0 1 1-.12 1.48 1.48 0 0 1 .64.13 1 1 0 0 1 .4.35 1.59 1.59 0 0 1 .21.58 4.53 4.53 0 0 1 0 .77V87h-1.07c-.34 0-.66.07-1 .12a4.43 4.43 0 0 0-.8.22 2.21 2.21 0 0 0-.64.36 1.72 1.72 0 0 0-.48.61 2.2 2.2 0 0 0-.08 1.53 1.72 1.72 0 0 0 .33.61 1.59 1.59 0 0 0 .56.46 1.69 1.69 0 0 0 .8.18 2.7 2.7 0 0 0 .43 0c.18 0 .37-.09.59-.16l.67-.23c.24-.09.46-.19.68-.3l.12.45a.34.34 0 0 0 .07.17.18.18 0 0 0 .15.06h1.01l.26-.05c.12 0 .18-.08.18-.17a.38.38 0 0 0 0-.08c-.1-.2-.13-.37-.16-.53zm-1.6-.5a4 4 0 0 1-.43.19 2.24 2.24 0 0 1-.38.11l-.29.07H144a1.41 1.41 0 0 1-.62-.11 1.06 1.06 0 0 1-.39-.28.93.93 0 0 1-.2-.38 1.45 1.45 0 0 1-.06-.41 1.25 1.25 0 0 1 .07-.43 1.07 1.07 0 0 1 .18-.32.92.92 0 0 1 .36-.28 2.05 2.05 0 0 1 .53-.14 4.31 4.31 0 0 1 .66-.07l.77-.06zM164.38 84h-.65l-.27.07a.41.41 0 0 0-.29.28L161.62 89 160 84.31a.37.37 0 0 0-.09-.16h-.78a.45.45 0 0 0-.11.19L157.38 89l-1.56-4.66a1.06 1.06 0 0 0-.12-.24.23.23 0 0 0-.2-.09h-.28l-.53.11-.69.17-.73.2.06.45h.38a.81.81 0 0 1 .48.15 1.38 1.38 0 0 1 .37.58l2 5.35a.23.23 0 0 0 .08.12.19.19 0 0 0 .1 0h.53a.2.2 0 0 0 .08 0 .37.37 0 0 0 .07-.13l1.71-4.65 1.68 4.64a.23.23 0 0 0 .08.12.17.17 0 0 0 .1 0h.52c.05 0 .1-.06.15-.17l2.83-6.66a.5.5 0 0 0 0-.16.11.11 0 0 0 0-.08.17.17 0 0 0-.11-.05zm11.79 6.25a2.44 2.44 0 0 1 0-.55v-3a5.19 5.19 0 0 0-.11-1.25 2.07 2.07 0 0 0-.37-.85 1.47 1.47 0 0 0-.7-.49 3 3 0 0 0-1.06-.16 4.17 4.17 0 0 0-.53 0l-.71.15-.83.25-.9.35.19.62a9.84 9.84 0 0 1 1.17-.33 4.32 4.32 0 0 1 1-.12 1.48 1.48 0 0 1 .68.13 1 1 0 0 1 .4.35 1.59 1.59 0 0 1 .21.58 4.53 4.53 0 0 1 .05.77v.3h-1.07c-.34 0-.66.07-.95.12a4.43 4.43 0 0 0-.8.22 2.21 2.21 0 0 0-.64.36 1.72 1.72 0 0 0-.48.61 2.2 2.2 0 0 0-.08 1.53 1.72 1.72 0 0 0 .33.61 1.59 1.59 0 0 0 .56.46 1.69 1.69 0 0 0 .8.18 2.58 2.58 0 0 0 .43 0c.18 0 .37-.09.59-.16l.67-.23c.24-.09.46-.19.68-.3l.12.45a.34.34 0 0 0 .07.17.18.18 0 0 0 .15.06h.85l.26-.05c.12 0 .18-.08.18-.17a.38.38 0 0 0 0-.08c-.1-.2-.13-.37-.16-.53zm-1.6-.5a4 4 0 0 1-.43.19 2.24 2.24 0 0 1-.38.11l-.29.07h-.17a1.41 1.41 0 0 1-.62-.11 1.15 1.15 0 0 1-.39-.28.93.93 0 0 1-.2-.38A1.45 1.45 0 0 1 172 89a1.25 1.25 0 0 1 .07-.43 1.07 1.07 0 0 1 .18-.32.92.92 0 0 1 .36-.28 2.05 2.05 0 0 1 .53-.14 4.31 4.31 0 0 1 .66-.07l.77-.06zm15.33-5.19a1.49 1.49 0 0 0-.58-.47 2 2 0 0 0-.85-.17 2.68 2.68 0 0 0-.47.08c-.21 0-.43.1-.68.17l-.77.25-.82.3v-6c0-.23-.09-.34-.28-.34a6.35 6.35 0 0 0-.74.12 16.23 16.23 0 0 0-1.59.39l.05.45h.36a.6.6 0 0 1 .49.18 1.12 1.12 0 0 1 .15.68v10.66q0 .24.21.24h.83l.31-.05a.25.25 0 0 0 .21-.27v-5.37a6 6 0 0 1 1-.37 3.49 3.49 0 0 1 .59-.09 1.62 1.62 0 0 1 .7.13 1.16 1.16 0 0 1 .46.39 2 2 0 0 1 .25.64 4.73 4.73 0 0 1 .07.89v3.86q0 .24.21.24h.83l.31-.05a.25.25 0 0 0 .21-.27v-4.5a4 4 0 0 0-.1-.94 1.85 1.85 0 0 0-.36-.78z"/><use xlink:href="#B" x="66.14"/><path d="M199.74 84h-.26l-.51.1-.71.16-.88.24.05.45h.42a.56.56 0 0 1 .46.18 1.14 1.14 0 0 1 .15.68v5.1q0 .24.21.24h.82l.32-.05a.25.25 0 0 0 .21-.27V84.3c-.02-.22-.09-.3-.28-.3zm13.07.25a.89.89 0 0 0-.3-.24.93.93 0 0 0-.42-.09 1.92 1.92 0 0 0-.49.07 3.81 3.81 0 0 0-.58.18l-.62.27-.61.34v-.48c0-.22-.09-.33-.28-.33h-.26l-.51.1-.71.16-.88.24v.45h.41a.57.57 0 0 1 .47.18 1.14 1.14 0 0 1 .15.68v5.1q0 .24.21.24h.82l.32-.05a.25.25 0 0 0 .21-.27v-5.34a4.6 4.6 0 0 1 .64-.3A1.59 1.59 0 0 1 211 85a.51.51 0 0 1 .41.18.84.84 0 0 1 .17.6V86h.42a1.21 1.21 0 0 0 .48-.09 1 1 0 0 0 .54-.58 1.34 1.34 0 0 0 .06-.4 1.32 1.32 0 0 0-.06-.39.92.92 0 0 0-.21-.29zM73.9 1.35A2.09 2.09 0 0 0 72.19 0h-.58c-1.3.43-2 1.05-1.71 2.53.56 2.47 4.95 1.68 4-1.18zM31.06 2.59A2 2 0 0 0 28.6.12 1.94 1.94 0 0 0 27 2.65c.48 1.71 3.55 2.03 4.06-.06zm15.87 26.79c4.56 1.71 9-1.27 8.46-6.58h30.14V.12c-2.28.05-3 2.19-4.88 2.82.87 1 .59 3 .59 4.82l-.06 10.75c-1.05 0-2.27.08-3.23-.05V9.7c-2.27.3-2.85 2.3-4.81 2.88.91 1.2.54 4 .52 5.93-1.06 0-2.27.08-3.23-.05V9.7c-2.23.37-2.94 2.27-4.88 2.93 1 1.1.5 4 .53 5.88-1 0-2.23.08-3.17-.05V9.7c-2.27.3-2.91 2.3-4.82 2.88.83 1 .5 4 .47 5.93-1-.07-2.18 0-3.17-.11V9.7c-2.23.32-2.79 2.3-4.82 2.82.85 1.33.59 4.26.59 6.76 0 1.77.07 3.55-.06 5-.24 2.83-2.28 4.31-4.17 5.1zm41.83-6.58H93V8.87c0-2.23-.28-4.69.76-5.93v-.06C91.59 2.49 91.17.34 88.82.12c-.13 7.44-.02 15.14-.06 22.68zM69.2 7.52a2.24 2.24 0 0 0 1-1.11A2 2 0 0 0 68 3.76a2 2 0 0 0-1.8 1.18 2.13 2.13 0 0 0 3 2.58zm8.58-1.82a2 2 0 0 0-2.3-1.94 1.87 1.87 0 0 0-1.94 2c.04 2.53 4.27 2.69 4.24-.06zM23.13 30h1.06a10.26 10.26 0 0 0 5.58-2.23 8.17 8.17 0 0 0 2.94-4.82 57.77 57.77 0 0 0 0-6.58V9.81a31.56 31.56 0 0 1-4.29 1.36c-3.06.63-6.27.83-7.29 3.52-.77 2-.13 5.24-.35 8l7.76.06a6.28 6.28 0 0 1-5.88 4 6.11 6.11 0 0 1-5.88-3.7c-1-2.23-.7-5.8.24-8 1.89-4.54 5.81-7 8.75-10.34C22.28 8 17.1 11.13 15.26 16.63c-1.06 3.17-.89 6.86.64 9.22A9.38 9.38 0 0 0 23.13 30zm5.23-11.46h-3.18c-.57-2.48.93-3.38 3.18-3.23zm2.7-11.84a2.09 2.09 0 0 0-2.41-1.29 2 2 0 0 0-1.58 2.76c.93 2.24 4.75 1.08 3.99-1.47zm5 16.1l7.58.06a6 6 0 0 1-4.18 6.46c4.44 1.63 8.12-1 8.47-4.87.39-4.46-.18-10.37.06-14.7 0 0 0-.06-.06-.05a22.66 22.66 0 0 1-5.82 1.53 8.12 8.12 0 0 0-4.94 2.17c-1.74 1.91-.94 5.7-1.11 9.4zm7.58-7.58c0 1.08.07 2.31-.06 3.29h-3.29c-.57-2.51.91-3.51 3.35-3.29z"/></g><defs ><path id="B" d="M133.14 80.11a1.11 1.11 0 0 0-.74.22.92.92 0 0 0-.25.73 1.06 1.06 0 0 0 .21.7.73.73 0 0 0 .6.25 1.06 1.06 0 0 0 .73-.22 1 1 0 0 0 .25-.73 1 1 0 0 0-.21-.7.7.7 0 0 0-.59-.25z"/></defs></svg>