<svg xmlns="http://www.w3.org/2000/svg" viewBox="0 0 235.95 80.83"><path d="M228.56 15.57v46.28h7.39V15.57h-7.39zm-93.62 14.87a10.36 10.36 0 0 0-10.35 10.34v9.45a10.37 10.37 0 0 0 10.35 10.35h3V63c0 8.08-3 10.35-3 10.35A10.37 10.37 0 0 0 145.29 63V40.78a10.36 10.36 0 0 0-10.35-10.34zm3 22.74h-3a3 3 0 0 1-3-3v-9.4a3 3 0 0 1 5.92 0zm78.87-35.43v33.66a3 3 0 0 1-2.95 3h-3.47a10.06 10.06 0 0 0 .42-2.87v-17.2h-7.39V51.5a3 3 0 0 1-2.26 2.87h-3.76a10.42 10.42 0 0 0 .41-2.87V34.34h-7.39V51.5a3 3 0 0 1-2.25 2.87h-3.3a10.06 10.06 0 0 0 .42-2.87V34.34h-7.39V51.5a3 3 0 0 1-2.26 2.87H174a3 3 0 0 1-3-3v-1.19l.08-15.84H150.3v28.21c0 9.4-3 10.34-3 10.34a10.36 10.36 0 0 0 10.35-10.34v-21h5.91v9.85A10.36 10.36 0 0 0 174 61.76h39.91a10.36 10.36 0 0 0 10.35-10.35V15.57h-7.4zm-112.16 7.72a4.48 4.48 0 1 0-4.48-4.47 4.47 4.47 0 0 0 4.48 4.47zm10.25 0a4.48 4.48 0 1 0-4.47-4.47 4.48 4.48 0 0 0 4.47 4.47zm74.37 2.58a4.48 4.48 0 1 0-4.48-4.47 4.47 4.47 0 0 0 4.48 4.47zm5.92-9.34a4.48 4.48 0 1 0-4.48-4.48 4.48 4.48 0 0 0 4.48 4.48zm0 4.87a4.48 4.48 0 1 0 4.47-4.48 4.47 4.47 0 0 0-4.47 4.48zM111.11 29a10.36 10.36 0 0 0-10.34 10.35v9.44a10.36 10.36 0 0 0 10.34 10.35h2.96v2.46a3 3 0 0 1-3 3h-12a3 3 0 0 1-3-3V44h-7.25v17.6A10.36 10.36 0 0 0 99.16 72h12a10.36 10.36 0 0 0 10.3-10.4V39.35A10.36 10.36 0 0 0 111.11 29zm3 22.75h-3a3 3 0 0 1-3-3v-9.4a3 3 0 1 1 5.91 0zM80.83 40.42a40.42 40.42 0 1 0-40.41 40.41 40.42 40.42 0 0 0 40.41-40.41zM25.43 75.9A38.73 38.73 0 0 1 8.48 62a38.62 38.62 0 0 1-3.55-36.57 38.76 38.76 0 0 1 14-16.95 38.62 38.62 0 0 1 36.48-3.55 38.539 38.539 0 0 1-30 71zm2.74-55.96L15.11 33h6.53v16.27S21.37 60 30.13 60.89c0 0 8.41 0 10.38-2V52s-10.2 7.87-12-1.61V32.82h7.15l12 26.11s2.33 3 3.76.18l14.3-32.19h-7.33L49.63 47.3l-9.21-20.56H28z"/></svg>